<?xml version="1.0"?>
<svg width="500" height="500" xmlns="http://www.w3.org/2000/svg" xmlns:svg="http://www.w3.org/2000/svg" preserveAspectRatio="xMidYMid meet" version="1.0">
 <g class="layer">
  <title>Layer 1</title>
  <g fill="#000000" id="svg_1" transform="matrix(0.1 0 0 -0.1 0 0)">
   <path d="m974,-256c-32,-25 -99,-84 -148,-132c-269,-265 -480,-587 -619,-947c-35,-92 -99,-306 -93,-312c2,-2 42,67 90,152c156,279 307,503 454,674c64,75 95,123 144,221c50,103 142,254 224,368c23,32 15,28 -52,-24z" fill="#ff0000" id="svg_2"/>
   <path d="m4011,-265c175,-228 308,-511 364,-775c24,-111 45,-284 45,-362c0,-65 3,-73 44,-136c100,-154 171,-325 236,-572c67,-254 89,-436 91,-744l1,-201l34,101c87,263 127,603 106,902c-36,511 -212,980 -527,1400c-79,106 -338,376 -405,422l-35,25l46,-60z" fill="#ff0000" id="svg_3"/>
   <path d="m598,-1167c-159,-225 -358,-587 -499,-908l-61,-140l7,-120c15,-301 92,-621 212,-888c114,-256 317,-554 488,-717l48,-45l-7,70c-3,39 -14,151 -23,250c-20,218 -22,738 -4,930c14,149 39,333 47,346c3,5 -13,56 -35,113c-47,120 -101,325 -132,499c-26,143 -32,452 -11,576c7,40 11,76 9,78c-3,2 -20,-18 -39,-44z" fill="#ff0000" id="svg_4"/>
   <path d="m1133,-1650c-68,-326 -94,-576 -94,-906c0,-331 26,-557 92,-814c80,-308 210,-576 413,-850c38,-52 140,-165 226,-251l155,-155l80,-17c144,-30 496,-47 614,-29l45,7l39,90c130,305 232,645 201,674c-5,5 -50,23 -100,39c-210,70 -556,253 -796,422c-110,76 -358,320 -441,432c-113,152 -186,281 -252,449c-93,233 -133,467 -143,829l-7,235l-32,-155z" fill="#ff0000" id="svg_5"/>
   <path d="m3791,-1600c-20,-607 -70,-833 -238,-1086c-139,-210 -352,-376 -580,-452l-81,-27l40,-45c140,-156 222,-383 203,-558c-19,-167 -110,-582 -171,-775c-13,-43 -24,-80 -24,-83c0,-9 37,-4 125,17c100,24 98,22 219,175c144,181 277,399 369,604c242,541 299,1330 158,2165c-14,84 -19,100 -20,65z" fill="#ff0000" id="svg_6"/>
   <path d="m4372,-1892c-34,-171 -165,-481 -260,-620l-32,-46l10,-124c16,-206 -11,-445 -76,-693c-87,-326 -246,-694 -445,-1029l-23,-39l93,48c311,161 619,426 835,719c73,99 74,101 106,259c36,183 50,340 50,577c0,287 -27,479 -95,685c-45,137 -129,325 -144,325c-4,0 -13,-28 -19,-62z" fill="#ff0000" id="svg_7"/>
   <path d="m2440,-2584c-40,-22 -257,-74 -354,-86c-167,-20 -326,-12 -496,25l-25,6l24,-18c38,-29 218,-131 324,-185c53,-27 97,-53 97,-57c0,-14 -28,-21 -81,-21c-28,0 -48,-4 -45,-8c4,-7 142,-55 194,-68c21,-6 13,-34 -34,-118l-46,-81l44,-38c64,-56 250,-178 358,-235c150,-80 329,-147 499,-186l63,-15l-5,41c-12,87 -115,249 -251,395c-74,80 -87,114 -66,179c43,131 177,218 380,247l84,12l-69,59c-79,67 -106,80 -195,95c-122,21 -345,62 -360,66c-8,2 -26,-2 -40,-9zm203,-127c20,-5 37,-14 37,-18c0,-5 -17,-19 -37,-31c-33,-20 -41,-20 -81,-9c-50,14 -105,55 -96,71c7,12 114,4 177,-13z" fill="#ff0000" id="svg_8"/>
   <path d="m916,-3460c8,-212 49,-588 75,-683c7,-27 24,-48 60,-77c99,-78 362,-230 376,-217c3,3 -8,25 -25,49c-112,164 -297,516 -375,713c-26,66 -63,172 -82,235l-35,115l6,-135z" fill="#ff0000" id="svg_9"/>
  </g>
 </g>
</svg>